<svg xmlns="http://www.w3.org/2000/svg" width="38" height="40" fill="currentColor" viewBox="0 0 38 40">
  <path d="M32.5 19.395a11.68 11.68 0 0 1 2.09 1.816 11.67 11.67 0 0 1 1.582 2.227c.443.807.768 1.66.976 2.558.209.899.326 1.817.352 2.754 0 1.55-.293 3.008-.879 4.375a11.126 11.126 0 0 1-2.422 3.574 11.588 11.588 0 0 1-3.574 2.403c-1.354.586-2.813.885-4.375.898-1.185 0-2.33-.176-3.438-.527a10.782 10.782 0 0 1-3.046-1.524 11.839 11.839 0 0 1-2.461-2.383 10.759 10.759 0 0 1-1.66-3.066H0v-30h5V0h2.5v2.5H25V0h2.5v2.5h5v16.895ZM2.5 5v5H30V5h-2.5v2.5H25V5H7.5v2.5H5V5H2.5Zm12.559 25A12.68 12.68 0 0 1 15 28.75c0-1.12.156-2.207.469-3.262.312-1.054.787-2.05 1.426-2.988H15V20h2.5v1.68a10.801 10.801 0 0 1 1.777-1.758 11.666 11.666 0 0 1 2.11-1.309 10.813 10.813 0 0 1 2.363-.82 12.37 12.37 0 0 1 2.5-.293c1.302 0 2.552.215 3.75.645V12.5H2.5V30h12.559Zm11.191 7.5a8.47 8.47 0 0 0 3.398-.684 8.842 8.842 0 0 0 2.774-1.875 8.845 8.845 0 0 0 1.875-2.773A8.763 8.763 0 0 0 35 28.75a8.47 8.47 0 0 0-.684-3.398 8.842 8.842 0 0 0-1.875-2.774 8.845 8.845 0 0 0-2.773-1.875A8.763 8.763 0 0 0 26.25 20a8.47 8.47 0 0 0-3.398.684 8.842 8.842 0 0 0-2.774 1.875 8.845 8.845 0 0 0-1.875 2.773 8.763 8.763 0 0 0-.703 3.418c0 1.21.228 2.344.684 3.398a8.842 8.842 0 0 0 1.875 2.774 8.845 8.845 0 0 0 2.773 1.875 8.763 8.763 0 0 0 3.418.703Zm1.25-10h3.75V30H25v-7.5h2.5v5ZM5 20h2.5v2.5H5V20Zm5 0h2.5v2.5H10V20Zm0-5h2.5v2.5H10V15Zm0 10h2.5v2.5H10V25Zm7.5-7.5H15V15h2.5v2.5Zm5 0H20V15h2.5v2.5ZM5 15h2.5v2.5H5V15Z"/>
</svg>
