<svg xmlns="http://www.w3.org/2000/svg" width="23" height="23" fill="currentColor" viewBox="0 0 23 23">
  <path d="M18.9 16.2v.9h1.35a1.35 1.35 0 1 1 0 2.7H18.9v1.35a1.35 1.35 0 1 1-2.7 0v-6.3a1.35 1.35 0 0 1 1.35-1.35h3.6a1.35 1.35 0 1 1 0 2.7H18.9Zm-12.15.9a3.6 3.6 0 0 1-3.6 3.6H2.7v.45a1.35 1.35 0 0 1-2.7 0v-6.3a1.35 1.35 0 0 1 1.35-1.35h1.8a3.6 3.6 0 0 1 3.6 3.6Zm-2.7 0a.9.9 0 0 0-.9-.9H2.7V18h.45a.9.9 0 0 0 .9-.9Zm11.25.9a4.5 4.5 0 0 1-4.5 4.5H9a1.35 1.35 0 0 1-1.35-1.35v-6.3A1.35 1.35 0 0 1 9 13.5h1.8a4.5 4.5 0 0 1 4.5 4.5Zm-2.7 0a1.8 1.8 0 0 0-1.8-1.8h-.45v3.6h.45a1.8 1.8 0 0 0 1.8-1.8ZM.45 9.9V2.25A2.25 2.25 0 0 1 2.7 0h10.8a1.35 1.35 0 0 1 .955.396l6.3 6.3c.253.253.395.596.395.954V9.9a1.35 1.35 0 1 1-2.7 0v-.45h-5.4A1.35 1.35 0 0 1 11.7 8.1V2.7H3.15v7.2a1.35 1.35 0 0 1-2.7 0ZM14.4 4.162V6.75h2.588L14.4 4.162Z"/>
</svg>
