<svg xmlns="http://www.w3.org/2000/svg" width="16" height="16" fill="currentColor" viewBox="0 0 16 16">
  <g clip-path="url(#a)">
    <path d="M6.519 4.74a1.185 1.185 0 1 1 2.37 0 1.185 1.185 0 0 1-2.37 0ZM16 8a8 8 0 1 1-8-8 8.01 8.01 0 0 1 8 8Zm-1.778 0A6.222 6.222 0 1 0 8 14.222 6.229 6.229 0 0 0 14.222 8ZM8.89 10.717v-2.42a1.481 1.481 0 0 0-1.482-1.482.889.889 0 0 0-.296 1.727v2.421a1.481 1.481 0 0 0 1.482 1.481.888.888 0 0 0 .296-1.727Z"/>
  </g>
  <defs>
    <clipPath id="a">
      <path d="M0 0h16v16H0z"/>
    </clipPath>
  </defs>
</svg>
