<svg width="150" height="114" viewBox="0 0 150 114" fill="none" xmlns="http://www.w3.org/2000/svg">
<g clip-path="url(#clip0_2076_375)">
<path d="M0.608093 104.438V75.5895H24.2465V104.438H18.7189V80.4351H6.09793V104.438H0.608093Z" fill="#141920"/>
<path d="M31.7879 115.256V75.5895H37.2966V80.2661H37.7682C38.0952 79.6651 38.5669 78.9702 39.1831 78.1814C39.7994 77.3925 40.6546 76.7039 41.7488 76.1154C42.843 75.5144 44.2894 75.2139 46.0879 75.2139C48.4272 75.2139 50.515 75.8024 52.3512 76.9793C54.1874 78.1563 55.6275 79.8529 56.6714 82.0691C57.7278 84.2854 58.2561 86.9523 58.2561 90.0701C58.2561 93.1878 57.7341 95.8611 56.6902 98.0898C55.6464 100.306 54.2126 102.015 52.3889 103.217C50.5653 104.407 48.4838 105.001 46.1445 105.001C44.3837 105.001 42.9436 104.707 41.8243 104.119C40.7175 103.53 39.8497 102.842 39.2209 102.053C38.592 101.264 38.1078 100.563 37.7682 99.9492H37.4287V115.256H31.7879ZM37.3155 90.0137C37.3155 92.0421 37.611 93.8201 38.2021 95.3477C38.7933 96.8753 39.6485 98.071 40.7678 98.935C41.8872 99.7864 43.2581 100.212 44.8805 100.212C46.5658 100.212 47.9744 99.7676 49.1063 98.8786C50.2383 97.9771 51.0935 96.7563 51.672 95.2162C52.2632 93.6761 52.5587 91.942 52.5587 90.0137C52.5587 88.1105 52.2695 86.4014 51.6909 84.8864C51.125 83.3713 50.2697 82.1756 49.1252 81.2991C47.9933 80.4226 46.5784 79.9844 44.8805 79.9844C43.2455 79.9844 41.862 80.4038 40.7301 81.2427C39.6108 82.0817 38.7618 83.2524 38.1833 84.7549C37.6047 86.2574 37.3155 88.0104 37.3155 90.0137Z" fill="#141920"/>
<path d="M70.1036 96.5685L82.8754 75.5895H88.9501V104.438H83.4225V83.4402L70.7073 104.438H64.576V75.5895H70.1036V96.5685Z" fill="#141920"/>
<path d="M116.173 87.5909V92.4553H100.477V87.5909H116.173ZM102.062 75.5895V104.438H96.534V75.5895H102.062ZM120.116 75.5895V104.438H114.607V75.5895H120.116Z" fill="#141920"/>
<path d="M124.068 80.4351V75.5895H148.518V80.4351H139.066V104.438H133.557V80.4351H124.068Z" fill="#141920"/>
</g>
<path d="M44.7026 1.3106V59.6714H37.6427V7.57982H8.26448V59.6714H1.20459V1.3106H44.7026Z" fill="#141920"/>
<path d="M93.218 59.6714L73.177 32.8847H66.0032V59.6714H58.9434V1.3106H66.0032V26.6155H69.0777L92.4209 1.3106H100.847L77.2763 26.9574L101.644 59.6714H93.218Z" fill="#141920"/>
<path d="M143.669 28.0973V34.3665H119.643V28.0973H143.669ZM105.751 41.4336H113.038C113.665 45.5371 115.05 48.6907 117.195 50.8945C119.339 53.0982 122.774 54.2001 127.5 54.2001C130.84 54.2001 133.63 53.2597 135.869 51.3789C138.127 49.4981 139.817 47.0095 140.936 43.9128C142.075 40.8162 142.644 37.4441 142.644 33.7966V27.2994C142.644 23.2719 142.008 19.7288 140.737 16.6702C139.484 13.5926 137.672 11.1989 135.3 9.48909C132.946 7.7603 130.119 6.89591 126.816 6.89591C123.932 6.89591 121.541 7.40884 119.643 8.43472C117.745 9.46059 116.265 10.9329 115.202 12.8517C114.139 14.7704 113.418 17.0786 113.038 19.7763H105.751C106.13 16.0528 107.146 12.7472 108.797 9.85954C110.467 6.9529 112.792 4.67318 115.771 3.02039C118.77 1.34859 122.451 0.512695 126.816 0.512695C131.561 0.512695 135.66 1.62406 139.114 3.84678C142.568 6.05051 145.235 9.15663 147.114 13.1651C148.992 17.1546 149.932 21.8281 149.932 27.1854V33.9106C149.932 39.2679 149.002 43.9413 147.142 47.9308C145.282 51.9013 142.673 54.9885 139.314 57.1922C135.954 59.3769 132.016 60.4693 127.5 60.4693C122.869 60.4693 119.016 59.6334 115.942 57.9616C112.886 56.2708 110.524 53.9911 108.854 51.1224C107.203 48.2348 106.168 45.0052 105.751 41.4336Z" fill="#141920"/>
<defs>
<clipPath id="clip0_2076_375">
<rect width="150" height="42" fill="white" transform="translate(0 72)"/>
</clipPath>
</defs>
</svg>
