<svg width="96" height="73" viewBox="0 0 96 73" fill="none" xmlns="http://www.w3.org/2000/svg">
<g clip-path="url(#clip0_2006_182)">
<path d="M0.389173 66.8533V48.3078H15.5177V66.8533H11.9801V51.4229H3.90267V66.8533H0.389173ZM20.3443 73.8078V48.3078H23.8698V51.3142H24.1717C24.3809 50.9279 24.6828 50.4811 25.0772 49.974C25.4716 49.4669 26.019 49.0242 26.7193 48.6459C27.4195 48.2595 28.3452 48.0664 29.4962 48.0664C30.9934 48.0664 32.3296 48.4447 33.5048 49.2013C34.68 49.9579 35.6016 51.0486 36.2697 52.4733C36.9458 53.898 37.2839 55.6125 37.2839 57.6168C37.2839 59.621 36.9498 61.3396 36.2818 62.7723C35.6137 64.197 34.6961 65.2958 33.5289 66.0685C32.3618 66.8332 31.0296 67.2155 29.5325 67.2155C28.4056 67.2155 27.4839 67.0263 26.7675 66.648C26.0592 66.2697 25.5038 65.827 25.1014 65.3199C24.6989 64.8128 24.389 64.362 24.1717 63.9676H23.9543V73.8078H20.3443ZM23.8819 57.5806C23.8819 58.8845 24.0711 60.0275 24.4494 61.0095C24.8277 61.9915 25.375 62.7602 26.0914 63.3156C26.8078 63.863 27.6852 64.1367 28.7235 64.1367C29.8021 64.1367 30.7036 63.8509 31.4281 63.2794C32.1525 62.6999 32.6998 61.9151 33.0701 60.925C33.4484 59.935 33.6376 58.8201 33.6376 57.5806C33.6376 56.3571 33.4524 55.2583 33.0822 54.2844C32.72 53.3104 32.1726 52.5417 31.4401 51.9783C30.7157 51.4148 29.8102 51.1331 28.7235 51.1331C27.6771 51.1331 26.7917 51.4028 26.0673 51.9421C25.3509 52.4814 24.8076 53.234 24.4373 54.1999C24.067 55.1658 23.8819 56.2927 23.8819 57.5806ZM44.8663 61.7943L53.0403 48.3078H56.9281V66.8533H53.3904V53.3547L45.2526 66.8533H41.3286V48.3078H44.8663V61.7943ZM74.3506 56.023V59.1502H64.3052V56.023H74.3506ZM65.3194 48.3078V66.8533H61.7818V48.3078H65.3194ZM76.8741 48.3078V66.8533H73.3485V48.3078H76.8741ZM79.4036 51.4229V48.3078H95.0513V51.4229H89.0023V66.8533H85.4767V51.4229H79.4036Z" fill="#141920"/>
</g>
<g clip-path="url(#clip1_2006_182)">
<path d="M28.6096 0.83796V38.1506H24.0913V4.84615H5.28925V38.1506H0.770921V0.83796H28.6096ZM59.6595 38.1506L46.8333 21.0247H42.2421V38.1506H37.7237V0.83796H42.2421V17.0165H44.2097L59.1493 0.83796H64.5422L49.4568 17.2351L65.0523 38.1506H59.6595ZM91.9482 17.9639V21.9721H76.5713V17.9639H91.9482ZM67.6804 26.4904H72.3445C72.7453 29.1139 73.632 31.1302 75.0045 32.5391C76.377 33.9481 78.5754 34.6525 81.5998 34.6525C83.7375 34.6525 85.5229 34.0513 86.9562 32.8488C88.4016 31.6464 89.4826 30.0553 90.1992 28.0755C90.9279 26.0957 91.2923 23.9397 91.2923 21.6077V17.4537C91.2923 14.8788 90.8854 12.6135 90.0716 10.658C89.27 8.69038 88.1101 7.15997 86.5918 6.06683C85.0857 4.96154 83.2759 4.40889 81.1625 4.40889C79.3163 4.40889 77.7859 4.73684 76.5713 5.39273C75.3567 6.04861 74.4093 6.98993 73.7291 8.21668C73.049 9.44343 72.5874 10.9192 72.3445 12.6439H67.6804C67.9233 10.2633 68.5731 8.14988 69.6299 6.30368C70.6987 4.44533 72.1866 2.98781 74.0935 1.9311C76.0126 0.862251 78.3689 0.327826 81.1625 0.327826C84.199 0.327826 86.8226 1.03837 89.0332 2.45946C91.2437 3.8684 92.9503 5.85427 94.1527 8.41709C95.3552 10.9678 95.9564 13.9557 95.9564 17.3809V21.6806C95.9564 25.1057 95.3612 28.0937 94.1709 30.6443C92.9806 33.1829 91.3105 35.1566 89.1607 36.5655C87.0108 37.9623 84.4905 38.6607 81.5998 38.6607C78.6361 38.6607 76.1705 38.1263 74.2028 37.0575C72.2473 35.9765 70.7351 34.5189 69.6663 32.6849C68.6096 30.8387 67.9476 28.7739 67.6804 26.4904Z" fill="#113DDE"/>
</g>
<defs>
<clipPath id="clip0_2006_182">
<rect width="96" height="27" fill="white" transform="translate(0 46)"/>
</clipPath>
<clipPath id="clip1_2006_182">
<rect width="96" height="39" fill="white"/>
</clipPath>
</defs>
</svg>
