<svg xmlns="http://www.w3.org/2000/svg" width="23" height="23" fill="currentColor" viewBox="0 0 23 23">
  <path d="M4.25 20h2c.354 0 .651.12.891.36s.36.537.359.89c0 .353-.12.65-.36.891s-.536.36-.89.359h-5c-.354 0-.65-.12-.89-.36S0 21.603 0 21.25v-5c0-.354.12-.65.36-.89s.537-.36.89-.36.65.12.891.36.36.538.359.89v2l3-3c.23-.23.52-.344.875-.344.354 0 .646.115.875.344.23.23.344.52.344.875 0 .354-.115.646-.344.875l-3 3ZM20 4.25l-3 3c-.23.23-.52.344-.875.344-.354 0-.646-.115-.875-.344-.23-.23-.344-.52-.344-.875 0-.354.115-.646.344-.875l3-3h-2c-.354 0-.65-.12-.89-.36S15 1.603 15 1.25s.12-.65.36-.89.538-.36.89-.36h5c.354 0 .651.12.891.36s.36.537.359.89v5c0 .354-.12.651-.36.891s-.537.36-.89.359c-.353 0-.65-.12-.89-.36S20 6.604 20 6.25v-2Z"/>
</svg>
